<?xml version="1.0" encoding="UTF-8"?>
<svg xmlns="http://www.w3.org/2000/svg" id="Layer_1" data-name="Layer 1" viewBox="0 0 24 24">
  <path d="m1,3.5c0-1.381,1.119-2.5,2.5-2.5s2.5,1.119,2.5,2.5-1.119,2.5-2.5,2.5-2.5-1.119-2.5-2.5Zm12.343,3.403l.224-.126c-.044-.252-.067-.512-.067-.777s.023-.524.067-.777l-.224-.126c-.722-.407-.977-1.322-.57-2.044.407-.721,1.321-.975,2.043-.569l.226.127c.424-.37.917-.662,1.457-.853v-.257c0-.828.671-1.5,1.5-1.5s1.5.672,1.5,1.5v.257c.54.192,1.034.483,1.457.853l.226-.127c.723-.404,1.637-.151,2.043.569.407.722.152,1.637-.57,2.044l-.224.126c.044.252.067.512.067.777s-.023.524-.067.777l.224.126c.722.407.977,1.322.57,2.044-.276.488-.784.763-1.308.763-.25,0-.502-.062-.735-.193l-.226-.127c-.424.37-.917.662-1.457.853v.257c0,.828-.671,1.5-1.5,1.5s-1.5-.672-1.5-1.5v-.257c-.54-.192-1.034-.483-1.457-.853l-.226.127c-.233.131-.486.193-.735.193-.524,0-1.032-.274-1.308-.763-.407-.722-.152-1.637.57-2.044Zm4.657.597c.827,0,1.5-.673,1.5-1.5s-.673-1.5-1.5-1.5-1.5.673-1.5,1.5.673,1.5,1.5,1.5Zm5.732,5.145c-.473-.681-1.406-.849-2.087-.377l-13,9.021c-.681.473-.85,1.407-.377,2.088.292.42.759.645,1.234.645.295,0,.593-.087.854-.268l13-9.021c.681-.473.85-1.407.377-2.088Zm-13.732,4.855v-1.5c0-1.103-.897-2-2-2h-2v-3h.671c.935,0,1.814-.364,2.475-1.025l1.914-1.914c.586-.586.586-1.535,0-2.121s-1.535-.586-2.121,0l-1.914,1.914c-.095.095-.22.146-.354.146h-3.171c-1.381,0-2.5,1.119-2.5,2.5v9.115c0,.063-.012.126-.036.186l-.857,2.143c-.308.769.066,1.642.835,1.949.183.073.371.107.557.107.595,0,1.159-.356,1.393-.943l.856-2.142c.167-.415.251-.853.251-1.3v-2.615h3v.5c0,.828.671,1.5,1.5,1.5s1.5-.672,1.5-1.5Z"/>
</svg>
