<?xml version="1.0" encoding="UTF-8"?>
<svg xmlns="http://www.w3.org/2000/svg" id="Layer_1" data-name="Layer 1" viewBox="0 0 24 24">
  <path d="m20.127,14.072c-1.961.423-5.624,1.134-8.127,1.134s-6.166-.71-8.127-1.134c-.948-.206-1.926.027-2.681.638-.758.612-1.192,1.521-1.192,2.496v3.589c0,.974.435,1.884,1.192,2.496.754.609,1.732.839,2.681.638,1.961-.423,5.624-1.134,8.127-1.134s6.166.71,8.127,1.134c.226.049.453.073.679.073.722,0,1.427-.246,2.002-.71.758-.612,1.192-1.521,1.192-2.496v-3.589c0-.974-.435-1.884-1.192-2.496-.755-.61-1.734-.841-2.681-.638ZM3.24,20.995c-.06.013-.115,0-.164-.039-.051-.042-.077-.096-.077-.162v-3.589c0-.066.026-.12.077-.162.049-.039.103-.053.164-.039,2.084.45,4.866.965,7.26,1.137v1.716c-2.394.172-5.176.687-7.26,1.137Zm17.76-.201c0,.066-.026.12-.077.162-.048.039-.102.053-.164.039-2.084-.45-4.866-.965-7.26-1.137v-1.716c2.394-.172,5.176-.687,7.26-1.137.06-.014.115,0,.164.039.051.042.077.096.077.162v3.589Zm2.079-16.678L14.489.507c-1.604-.674-3.443-.673-5.045.006L.916,4.119c-.555.234-.916.779-.916,1.381s.361,1.147.916,1.381l4.084,1.727v2.892c0,.829.671,1.5,1.5,1.5s1.5-.671,1.5-1.5v-1.623l1.444.611c.804.339,1.667.509,2.529.509.858,0,1.716-.168,2.516-.504l1.511-.635v1.642c0,.829.671,1.5,1.5,1.5s1.5-.671,1.5-1.5v-2.903l2-.84v2.743c0,.829.671,1.5,1.5,1.5s1.5-.671,1.5-1.5v-5c0-1-.797-1.332-.921-1.384Zm-9.752,3.611c-.862.363-1.852.362-2.715-.003l-5.26-2.224,5.26-2.224c.863-.365,1.853-.366,2.715-.003l5.3,2.227-5.3,2.227Z"/>
</svg>
